{"title":"The Perfect Storm 2000 720p Esub BluRay Dual Audio English Hindi","magnet":"magnet:?xt=urn:btih:9650a9a36c5cf720671358cb58b38f2a593e5eb1&dn=The+Perfect+Storm+2000+720p+Esub+BluRay+Dual+Audio+English+Hindi&tr=udp%3A%2F%2Ftracker.leechers-paradise.org%3A6969&tr=udp%3A%2F%2Fzer0day.ch%3A1337&tr=udp%3A%2F%2Fopen.demonii.com%3A1337&tr=udp%3A%2F%2Ftracker.coppersurfer.tk%3A6969&tr=udp%3A%2F%2Fexodus.desync.com%3A6969","uploader":"jatt13","categoryP":"video","categoryS":"hd___movies","size":"964196402","seeders":"2","leechers":"74","description":"[center][img]http://i.imgur.com/uYE011k.jpg[/img]\r\nGeneral\r\nUnique ID                      : 2014913945623191113472.....................\r\nComplete name                  : F:DUB2000The Perfect Storm 2000 720p Esub BluRay Dual Audio English Hindi GOPISAHI\r\nFormat                         : Matroska\r\nFormat version                 : Version 4 / Version 2\r\nFile size                      : 920 MiB\r\nDuration                       : 2 h 9 min\r\nOverall bit rate               : 990 kb/s\r\nMovie name                     : The Perfect Storm 2000 \r\n\r\nVideo\r\nFormat                         : AVC\r\nCodec ID                       : V_MPEG4/ISO/AVC\r\nDuration                       : 2 h 9 min\r\nBit rate                       : 794 kb/s\r\nWidth                          : 1 280 pixels\r\nHeight                         : 528 pixels\r\nDisplay aspect ratio           : 2.40:1\r\nFrame rate mode                : Constant\r\nFrame rate                     : 23.976 (24000/1001) FPS\r\nStream size                    : 737 MiB (80%)\r\nWriting library                : x264 core 116 r2074 2641b9e\r\n\r\nAudio #1\r\nFormat                         : AAC\r\nDuration                       : 2 h 9 min\r\nBit rate                       : 88.7 kb/s\r\nChannel(s)                     : 6 channels\r\nChannel positions              : Front: L C R, Side: L R, LFE\r\nSampling rate                  : 44.1 kHz\r\nFrame rate                     : 43.066 FPS (1024 SPF)\r\nStream size                    : 82.3 MiB (9%)\r\nLanguage                       : English\r\n\r\nAudio #2\r\nFormat                         : AAC\r\nDuration                       : 2 h 3 min\r\nBit rate                       : 111 kb/s\r\nChannel(s)                     : 6 channels\r\nChannel positions              : Front: L C R, Side: L R, LFE\r\nSampling rate                  : 44.1 kHz\r\nFrame rate                     : 43.066 FPS (1024 SPF)\r\nStream size                    : 97.8 MiB (11%)\r\nLanguage                       : Hindi\r\n\r\nText\r\nLanguage                       : English\r\n[img]http://i.imgur.com/i5NGy2L.jpg[/img]\r\n[img]http://i.imgur.com/K7nBwXa.jpg[/img]\r\n[img]http://i.imgur.com/POqTPiY.jpg[/img]\r\n[img]http://i.imgur.com/MwJvZOg.jpg[/img]][/center]","last_updated":"2017-08-29T12:05:53.701Z","parsed":{"xt":"urn:btih:9650a9a36c5cf720671358cb58b38f2a593e5eb1","dn":"The Perfect Storm 2000 720p Esub BluRay Dual Audio English Hindi","tr":["udp://exodus.desync.com:6969","udp://open.demonii.com:1337","udp://tracker.coppersurfer.tk:6969","udp://tracker.leechers-paradise.org:6969","udp://zer0day.ch:1337"],"infoHash":"9650a9a36c5cf720671358cb58b38f2a593e5eb1","infoHashBuffer":{"type":"Buffer","data":[150,80,169,163,108,92,247,32,103,19,88,203,88,179,143,42,89,62,94,177]},"name":"The Perfect Storm 2000 720p Esub BluRay Dual Audio English Hindi","announce":["udp://exodus.desync.com:6969","udp://open.demonii.com:1337","udp://tracker.coppersurfer.tk:6969","udp://tracker.leechers-paradise.org:6969","udp://zer0day.ch:1337"],"urlList":[]}}